
<svg width="494px" height="94px" viewBox="0 0 494 94" version="1.1" xmlns="http://www.w3.org/2000/svg" xmlns:xlink="http://www.w3.org/1999/xlink">
    <g id="Page-1" stroke="none" stroke-width="1" fill="none" fill-rule="evenodd">
        <path d="M17.7545467,1 C36.0256542,1 45.161208,1 45.161208,1 C45.161208,1 46.315205,1.85450971 48.6231989,3.56352913 L42.0938979,40.9440138 L57.4143202,24.4024312 L90.7548229,24.4024312 L92.2369247,28.6642408 L64.9497304,49.6109604 L82.2370171,88.626202 L80.5599882,91.485869 L50.8708865,91.485869 L42.0938979,68.0074623 L34.7159512,74.2006134 L31.6014881,91.485869 L2,91.485869 L17.7545467,1 Z M159.994141,91.0249315 L135.351563,91.0249315 L133.172642,89.2148396 L133.172642,84.7429736 C129.741635,89.0216408 129.488624,87.3984243 125.99707,89.2148396 C122.505516,91.031255 118.822291,92.4780565 113.736328,92.4780565 C106.955044,92.4780565 99.535354,91.8476584 95.680517,87.7909975 C91.8256801,83.7343366 91.157544,78.2697653 91.157544,69.8335252 L99.2385892,25.1337664 L125.99707,25.1337664 L127.978122,28.1184176 C127.978122,32.1548961 121.806436,58.8059114 121.806436,66.2820886 C121.806436,73.7582658 131.295679,68.5425166 133.172642,66.2820886 C133.279595,65.8928727 135.351563,63.968082 135.351563,62.0698464 L142.17668,25.1337664 L169.459662,25.1337664 L170.983674,28.1184176 L159.994141,91.0249315 Z M184.29271,25.7241502 L210.22458,25.7241502 C211.053372,26.3224383 211.495769,26.820018 211.55177,27.2168894 C211.7399,28.5501268 210.938312,29.919001 211.55177,29.9705367 C213.725755,30.1531698 218.611043,26.4835763 220.057855,25.7241502 C223.55683,23.8875525 228.107683,23.5238947 233.134945,23.5238947 C239.931804,23.5238947 245.296753,25.9138758 249.137582,29.9705367 C252.97841,34.0271976 253.405524,36.5619984 253.405524,45.0386033 L244.731535,91.4780565 L220.057855,91.4780565 C217.481188,90.9401869 216.241612,90.0655094 216.339128,88.8540239 C216.915503,81.6934511 219.165917,70.010041 223.090368,53.8037937 C223.090368,49.7673152 220.520375,47.5512986 217.825762,47.5512986 C214.849623,47.5512986 213.401803,47.2309537 211.55177,49.4913817 C209.701738,51.7518097 208.301013,53.8037937 208.301013,56.1186815 L201.537514,91.4780565 L175.457862,91.4780565 L172.731535,88.8540239 L184.29271,25.7241502 Z M257,69.6772752 L285.699219,66.6499315 C286.708338,69.556196 287.576163,72.1193262 289.392578,73.3706346 C291.208993,74.6219429 291.693344,74.8887864 294.720703,74.8887864 C298.030616,74.8887864 300.330122,74.3731656 301.735967,73.3706346 C302.432182,72.733285 302.753221,71.3858535 302.753221,71.191152 C302.753221,70.8943258 302.903727,70.2794234 300.931656,69.3037977 C300.174681,68.9293058 299.224931,68.7928112 297.679825,68.5062077 C295.199624,68.0461521 291.644803,67.2717027 288.113143,66.6499315 C279.555808,65.1564344 279.004252,64.6222831 275.674157,63.3507924 C272.344062,62.0793016 269.436022,60.5162586 266.469919,55.2725733 C263.503815,50.0288881 264.721152,44.971545 265.856063,41.220244 C266.990974,37.4689429 269.290819,34.6712208 272.354245,31.6668824 C275.417671,28.662544 280.12121,27.3477179 284.440242,25.8340385 C288.759274,24.320359 298.290689,23.994658 305.556351,23.994658 C313.22566,23.994658 313.763158,24.0224096 319.331382,25.8340385 C324.899605,27.6456673 326.584736,30.3211003 329.026805,32.7833522 C330.403087,34.1710086 332.997536,39.2774512 333.10849,41.8257127 C333.194412,43.799076 332.997536,44.5746448 331.49564,44.971545 L305.556351,47.0023982 C304.950879,44.9437941 302.930464,42.1889988 301.517696,41.220244 C300.466935,40.8523025 299.723085,40.6325356 296.97828,40.6325356 C294.19311,40.6325356 293.492669,41.220244 292.870752,41.8257127 C292.248834,42.4311815 291.925698,42.7971221 291.925698,43.3339338 C291.925698,43.8707455 291.875427,44.6142385 292.46238,44.971545 C293.049332,45.3288514 296.654149,46.3565616 302.06303,47.0023982 C310.257081,47.9307882 317.972598,48.4264145 323.177734,52.1792283 C328.382871,55.9320422 328.413467,56.8503211 329.723168,59.811036 C331.03287,62.771751 331.03287,67.0540015 330.632232,69.6772752 C330.231593,72.3005489 326.414662,79.2783011 323.473177,82.4286977 C320.531692,85.5790943 317.638835,86.9063672 312.815243,88.9851537 C307.991652,91.0639401 299.496231,92.5119767 291.178711,92.5119767 C285.953972,92.5119767 279.605795,92.517428 274.664023,91.4887024 C269.735765,90.46279 266.114939,88.5931616 263.503815,86.4763492 C262.922632,86.0051901 262.315726,85.3846702 261.922016,84.9922345 C261.050262,84.1233027 260.616665,83.4648135 259.526482,81.5988331 C257.641118,78.3718034 257,76.0021827 257,69.6772752 Z M383.724267,2.08354627 L386.365635,4.29021629 L382.810547,25.4609375 L394.004363,25.4609375 L395.840714,27.426073 L392.255859,46.649195 L378.572266,46.649195 L374.937407,67.9976093 C374.937407,70.7424147 374.412665,69.8578008 374.937407,70.745826 C375.744703,72.1182287 380.792308,70.745826 382.810547,70.745826 C383.990549,70.745826 385.777123,71.084919 386.365635,71.6975147 C386.683038,72.0279072 385.220091,73.1084938 386.365635,72.7407885 L385.234758,90.2580983 C379.139675,91.5901362 373.435288,92.4030479 368.147501,92.4030479 C362.012054,92.4030479 354.879703,91.8323249 351.973438,90.2580983 C349.067174,88.6838717 346.696902,85.5064951 345.304317,82.2974947 C343.911732,79.0884943 343.911732,77.6532009 345.304317,69.7914827 L349.639345,46.649195 L342.064328,46.649195 L340.454289,44.7024742 L344,25.4609375 L353.082031,25.4609375 L355.170898,15.062748 L383.724267,2.08354627 Z M422.498047,36.7853982 L424.569895,35.2678814 L445.729372,35.2678814 L445.729372,14.515892 L447.071832,13.1636033 L467.795939,13.1636033 L469.099501,14.515892 L469.099501,35.2678814 L490.599435,35.2678814 L492.498047,36.7853982 L492.498047,56.6645191 L490.599435,58.1429197 L469.099501,58.1429197 L469.099501,78.0693159 L467.795939,80.1636033 L447.071832,80.1636033 L445.729372,78.0693159 L445.729372,58.1429197 L424.569895,58.1429197 L422.498047,56.6645191 L422.498047,36.7853982 Z" id="kunst+" stroke="#FFFFFF" stroke-width="2" fill-rule="nonzero"></path>
    </g>
</svg>