<?xml version="1.0" encoding="UTF-8" standalone="no"?>
<!-- Uploaded to: SVG Repo, www.svgrepo.com, Generator: SVG Repo Mixer Tools -->

<svg
   height="800"
   width="800"
   version="1.1"
   id="Layer_1"
   viewBox="0 0 512 512"
   xml:space="preserve"
   xmlns="http://www.w3.org/2000/svg"
   xmlns:svg="http://www.w3.org/2000/svg"><defs
   id="defs4" />
<g
   id="g3"
   style="fill:none">
	<path
   style="fill:none"
   d="m 363.485,374.099 c -44.707,-24.704 -95.544,-37.754 -147.04,-37.754 -30.32,0 -60.742,4.581 -90.409,13.611 -6.146,2.009 -10.858,18.628 -8.578,26.115 1.687,5.479 6.716,9.169 12.511,9.169 1.326,0 2.651,-0.2 3.942,-0.593 26.465,-8.251 54.242,-12.437 82.536,-12.437 46.832,0 93.278,11.925 134.32,34.482 2.05,1.11 4.099,1.633 6.431,1.633 4.705,0 9.164,-2.646 11.361,-6.738 1.741,-3.189 2.172,-9.322 1.088,-15.284 -1.084,-5.966 -3.503,-10.755 -6.162,-12.204 z"
   id="path1" />
	<path
   style="fill:none"
   d="m 393.716,285.328 c -54.267,-28.272 -115.554,-43.206 -177.271,-43.206 -34.331,0 -68.506,4.558 -101.574,13.547 -8.106,2.204 -13.587,17.947 -11.187,26.953 1.873,6.926 8.2,11.774 15.38,11.773 1.418,0 2.842,-0.19 4.232,-0.566 29.845,-8.279 61.195,-12.481 93.149,-12.481 57.446,0 112.123,13.305 162.515,39.548 2.443,1.22 4.895,1.83 7.437,1.83 3.586,0 9.246,-6.367 14.089,-15.845 2.033,-3.901 2.426,-8.271 1.123,-12.335 -1.285,-4.014 -4.089,-7.287 -7.893,-9.218 z"
   id="path2" />
	<path
   style="fill:none"
   d="M 426.031,190.377 C 360.574,157.723 290.066,141.17 216.445,141.17 c -38.029,0 -76.276,4.658 -113.681,13.846 -9.617,2.422 -16.258,14.752 -13.641,25.367 2.087,8.383 9.607,14.245 18.284,14.245 1.541,0 3.09,-0.19 4.606,-0.564 34.425,-8.456 69.56,-12.745 104.431,-12.745 67.858,0 132.752,15.254 192.881,45.338 2.558,1.204 5.451,1.862 8.266,1.862 7.301,0 13.925,-6.606 16.99,-12.741 2.249,-4.556 2.605,-9.713 0.994,-14.506 -1.607,-4.782 -4.998,-8.653 -9.544,-10.895 z"
   id="path3" />
</g>
<path
   style="fill:#ffffff;fill-opacity:1"
   d="M 255.901,0 C 114.797,0 0,114.807 0,255.921 0,397.124 114.797,512 255.901,512 397.114,512 512,397.124 512,255.921 512,114.807 397.114,0 255.901,0 Z m 112.657,401.588 c -2.197,4.093 -6.656,6.738 -11.361,6.738 -2.332,0 -4.381,-0.524 -6.431,-1.633 -41.041,-22.558 -87.487,-34.482 -134.32,-34.482 -28.294,0 -56.072,4.187 -82.536,12.437 -1.289,0.391 -2.615,0.593 -3.942,0.593 -5.795,0 -10.824,-3.69 -12.511,-9.169 -2.278,-7.487 2.432,-24.104 8.578,-26.115 29.669,-9.031 60.089,-13.611 90.409,-13.611 51.495,0 102.333,13.05 147.04,37.754 2.659,1.449 5.076,6.24 6.161,12.204 1.085,5.962 0.654,12.092 -1.087,15.284 z m 31.927,-94.709 c -4.843,9.478 -10.504,15.845 -14.089,15.845 -2.542,0 -4.994,-0.609 -7.437,-1.83 -50.393,-26.243 -105.069,-39.548 -162.516,-39.548 -31.954,0 -63.303,4.202 -93.149,12.481 -1.388,0.376 -2.813,0.566 -4.232,0.566 -7.18,0.002 -13.507,-4.846 -15.38,-11.773 -2.401,-9.004 3.08,-24.747 11.187,-26.953 33.068,-8.989 67.243,-13.547 101.574,-13.547 61.717,0 123.003,14.934 177.271,43.206 3.804,1.93 6.607,5.206 7.892,9.216 1.306,4.066 0.912,8.434 -1.121,12.337 z m 34.099,-91.099 c -3.065,6.136 -9.689,12.741 -16.99,12.741 -2.815,0 -5.706,-0.66 -8.266,-1.862 -60.129,-30.084 -125.024,-45.338 -192.881,-45.338 -34.871,0 -70.006,4.289 -104.431,12.745 -1.516,0.374 -3.065,0.564 -4.606,0.564 -8.677,0 -16.196,-5.862 -18.284,-14.245 -2.617,-10.614 4.024,-22.944 13.641,-25.367 37.403,-9.187 75.65,-13.846 113.681,-13.846 73.621,0 144.127,16.552 209.586,49.207 4.546,2.243 7.935,6.114 9.547,10.898 1.608,4.79 1.252,9.947 -0.997,14.503 z"
   id="path4" />
</svg>
